<svg xmlns="http://www.w3.org/2000/svg" version="1.1" xmlns:xlink="http://www.w3.org/1999/xlink" xmlns:svgjs="http://svgjs.dev/svgjs" viewBox="0 0 800 800"><defs><linearGradient x1="50%" y1="0%" x2="50%" y2="100%" id="ccchaos-grad"><stop stop-color="#ffd369" stop-opacity="1" offset="0%"></stop><stop stop-color="hsl(331, 90%, 56%)" stop-opacity="1" offset="100%"></stop></linearGradient></defs><g stroke-width="2" stroke="url(#ccchaos-grad)" fill="none" stroke-linecap="round"><path d="M384.39 112.25C393.89 115.52 403.46 119.18 413.08 123.05 422.72 126.56 432.44 130.04 442.23 133.4 452.08 136.14 462.03 138.67 472.09 141.01 482.24 142.73 492.53 144.34 502.94 145.91 513.47 147.08 524.13 148.39 534.9 149.96 545.76 151.42 556.69 153.33 567.62 155.76 578.54 158.35 589.37 161.6 599.98 165.53 610.4 169.8 620.43 174.79 629.91 180.49 638.94 186.57 647.22 193.32 654.56 200.69 661.18 208.39 666.68 216.62 670.93 225.31 674.31 234.25 676.36 243.56 677.06 253.14 676.98 262.9 675.68 272.86 673.27 282.96 670.49 293.16 666.96 303.45 662.93 313.77 659.19 324.14 655.46 334.52 651.99 344.86 649.55 355.23 647.84 365.54 647.04 375.75 647.74 385.98 649.53 396.1 652.39 406.06 656.66 416.02 661.62 425.58 666.99 434.7 673.04 443.8 678.9 452.45 684.28 460.62 689.46 468.75 693.61 476.39 696.52 483.53 698.58 490.63 699.1 497.22 698.05 503.33 695.88 509.44 692.13 515.11 686.93 520.39 680.73 525.78 673.28 530.89 664.8 535.8 655.67 541.02 645.81 546.21 635.42 551.49 624.79 557.31 613.89 563.42 602.89 569.92 591.97 577.17 581.11 584.95 570.4 593.3 559.95 602.43 549.7 612.11 539.68 622.27 529.97 632.94 520.45 643.83 511.12 654.7 502.05 665.51 493.09 675.83 484.22 685.32 475.53 693.99 466.85 701.31 458.14 706.96 449.54 711.17 440.84 713.39 432.05 713.5 423.29 712.06 414.39 708.63 405.35 703.39 396.31 697.2 387.11 689.81 377.76 681.63 368.41 673.68 359.14 665.96 349.98 658.87 340.83 653.07 331.81 648.37 322.96 644.88 314.14 643.05 305.52 642.38 297.13 642.72 288.8 644.35 280.73 646.53 272.96 648.97 265.26 651.94 257.88 654.59 250.85 656.66 243.89 658.49 237.28 659.31 231.05 658.98 224.85 657.91 219.01 655.53 213.53 651.84 208.03 647.29 202.86 641.5 197.99 634.6 193.03 626.98 188.32 618.45 183.86 609.17 179.22 599.43 174.76 589.17 170.49 578.54 165.97 567.71 161.59 556.68 157.35 545.57 152.86 534.42 148.5 523.3 144.32 512.26 139.91 501.27 135.71 490.39 131.77 479.68 127.7 469.03 123.96 458.52 120.62 448.18 117.28 437.89 114.43 427.74 112.13 417.74 109.98 407.77 108.48 397.92 107.67 388.22 107.13 378.52 107.36 369.19 108.32 360.22 109.58 351.25 111.56 342.64 114.22 334.41 117.11 326.16 120.63 318.29 124.7 310.79 128.9 303.27 133.59 296.12 138.68 289.34 143.77 282.49 149.19 275.98 154.89 269.78 160.46 263.45 166.23 257.38 172.18 251.52 177.91 245.44 183.79 239.49 189.78 233.64 195.53 227.46 201.41 221.28 207.4 215.06 213.17 208.45 219.1 201.75 225.18 194.96 231.09 187.77 237.2 180.51 243.53 173.21 249.74 165.64 256.21 158.16 262.94 150.86 269.6 143.54 276.56 136.59 283.81 130.17 291.02 124.04 298.54 118.64 306.36 114.12 314.17 110.16 322.27 107.23 330.67 105.4 339.06 104.23 347.74 104.16 356.7 105.16 365.64 106.67 374.87 109.07 384.38 112.25" stroke-dasharray="1 9" transform="rotate(0, 400, 400)" opacity="0.92"></path><path d="M388.48 123.2C397.71 126.44 407.03 130.05 416.43 133.88 425.86 137.38 435.38 140.88 445 144.27 454.67 147.09 464.45 149.73 474.34 152.18 484.3 154.03 494.38 155.76 504.57 157.44 514.83 158.69 525.19 160.05 535.6 161.59 546.05 162.97 556.5 164.72 566.88 166.91 577.18 169.19 587.31 172.05 597.14 175.51 606.73 179.24 615.86 183.64 624.39 188.69 632.46 194.07 639.74 200.1 646.09 206.72 651.77 213.65 656.37 221.13 659.8 229.07 662.45 237.27 663.91 245.85 664.15 254.75 663.74 263.83 662.27 273.15 659.85 282.65 657.18 292.26 653.89 301.99 650.2 311.78 646.86 321.63 643.57 331.51 640.55 341.36 638.5 351.25 637.13 361.09 636.58 370.83 637.4 380.59 639.18 390.24 641.91 399.73 645.93 409.22 650.56 418.31 655.55 426.97 661.19 435.63 666.67 443.85 671.74 451.62 676.68 459.38 680.72 466.68 683.67 473.53 685.9 480.37 686.75 486.79 686.18 492.79 684.62 498.85 681.6 504.56 677.22 509.98 671.9 515.57 665.38 520.98 657.82 526.29 649.61 531.94 640.62 537.65 631.03 543.51 621.13 549.91 610.87 556.62 600.41 563.72 589.93 571.48 579.42 579.73 568.96 588.46 558.67 597.83 548.51 607.63 538.52 617.74 528.77 628.21 519.19 638.74 509.78 649.09 500.59 659.27 491.53 668.84 482.58 677.52 473.8 685.35 465.06 691.84 456.34 696.73 447.73 700.26 439.08 701.94 430.4 701.68 421.76 700.02 413.03 696.55 404.23 691.44 395.44 685.5 386.54 678.46 377.56 670.68 368.57 663.11 359.71 655.73 351 648.87 342.3 643.16 333.75 638.42 325.41 634.75 317.08 632.58 308.97 631.47 301.1 631.3 293.28 632.37 285.72 634 278.46 635.95 271.25 638.49 264.34 640.86 257.78 642.8 251.25 644.65 245.05 645.68 239.2 645.75 233.35 645.25 227.82 643.59 222.62 640.77 217.37 637.19 212.41 632.46 207.72 626.66 202.91 620.19 198.32 612.79 193.95 604.62 189.39 595.96 184.98 586.71 180.74 577.01 176.25 567.05 171.89 556.8 167.67 546.38 163.19 535.87 158.84 525.28 154.67 514.72 150.28 504.15 146.1 493.64 142.18 483.25 138.14 472.9 134.42 462.66 131.09 452.59 127.78 442.54 124.94 432.63 122.64 422.89 120.5 413.17 118.98 403.59 118.15 394.18 117.58 384.77 117.76 375.74 118.66 367.08 119.85 358.41 121.75 350.11 124.32 342.18 127.13 334.22 130.54 326.62 134.51 319.38 138.61 312.09 143.2 305.13 148.19 298.51 153.2 291.79 158.54 285.36 164.16 279.19 169.68 272.87 175.41 266.75 181.32 260.78 187.04 254.59 192.9 248.48 198.88 242.42 204.63 236.05 210.5 229.65 216.49 223.21 222.25 216.4 228.15 209.52 234.19 202.57 240.05 195.28 246.08 187.96 252.31 180.65 258.4 173.15 264.72 165.78 271.28 158.65 277.75 151.57 284.48 144.9 291.49 138.78 298.44 132.98 305.68 127.93 313.21 123.74 320.71 120.11 328.5 117.47 336.59 115.87 344.65 114.91 353.01 114.99 361.66 116.08 370.3 117.65 379.24 120.05 388.47 123.2" stroke-dasharray="5 10" transform="rotate(4.04, 400, 400)" opacity="0.75"></path><path d="M393.17 134.15C402.13 137.34 411.21 140.91 420.37 144.69 429.56 148.17 438.85 151.67 448.25 155.09 457.68 157.98 467.23 160.71 476.87 163.27 486.56 165.25 496.36 167.12 506.22 168.92 516.12 170.27 526.07 171.69 536.02 173.25 545.95 174.6 555.82 176.24 565.55 178.26 575.16 180.29 584.52 182.82 593.52 185.89 602.24 189.14 610.46 193 618.04 197.46 625.16 202.19 631.49 207.54 636.91 213.44 641.71 219.64 645.5 226.36 648.2 233.55 650.23 240.99 651.18 248.83 651.05 257.01 650.41 265.36 648.85 274 646.48 282.83 643.96 291.79 640.94 300.9 637.61 310.1 634.66 319.37 631.79 328.7 629.2 338.02 627.53 347.38 626.47 356.71 626.14 365.95 627.06 375.22 628.83 384.39 631.44 393.41 635.21 402.43 639.52 411.08 644.14 419.35 649.38 427.6 654.5 435.45 659.24 442.91 663.94 450.36 667.84 457.41 670.78 464.08 673.13 470.76 674.25 477.1 674.09 483.11 673.07 489.21 670.71 495.06 667.08 500.71 662.6 506.55 656.95 512.31 650.3 518.06 643 524.15 634.89 530.36 626.13 536.77 617.02 543.68 607.47 550.9 597.64 558.49 587.71 566.65 577.66 575.22 567.58 584.18 557.58 593.64 547.63 603.4 537.81 613.33 528.14 623.47 518.61 633.53 509.23 643.29 500.03 652.77 490.95 661.57 481.99 669.42 473.17 676.43 464.42 682.12 455.74 686.28 447.14 689.19 438.57 690.38 430 689.79 421.48 687.94 412.92 684.47 404.35 679.5 395.78 673.8 387.17 667.11 378.53 659.73 369.88 652.54 361.4 645.48 353.1 638.87 344.81 633.28 336.71 628.52 328.82 624.7 320.94 622.24 313.3 620.74 305.91 620.1 298.55 620.62 291.45 621.71 284.65 623.16 277.87 625.25 271.39 627.28 265.23 629.01 256.15 631.36 239.52 631.64 231.92 628.99 226.87 626.27 222.07 622.48 217.52 617.69 212.83 612.28 208.33 605.98 204.02 598.88 199.51 591.31 195.14 583.1 190.91 574.38 186.44 565.36 182.09 555.98 177.87 546.35 173.41 536.58 169.08 526.66 164.91 516.68 160.56 506.66 156.4 496.64 152.49 486.68 148.49 476.73 144.81 466.87 141.5 457.12 138.23 447.4 135.41 437.81 133.13 428.36 131 418.93 129.48 409.64 128.62 400.52 128.03 391.4 128.16 382.65 129 374.27 130.13 365.87 131.94 357.83 134.4 350.13 137.11 342.41 140.41 335.01 144.26 327.94 148.25 320.82 152.72 313.99 157.59 307.44 162.5 300.78 167.75 294.36 173.27 288.16 178.73 281.78 184.4 275.56 190.25 269.46 195.94 263.12 201.78 256.83 207.74 250.56 213.49 244 219.36 237.4 225.33 230.76 231.1 223.8 236.99 216.79 243 209.73 248.83 202.4 254.82 195.08 260.98 187.83 266.99 180.45 273.2 173.26 279.63 166.35 285.95 159.54 292.51 153.18 299.32 147.4 306.07 141.96 313.08 137.26 320.37 133.41 327.61 130.11 335.13 127.75 342.95 126.4 350.73 125.63 358.81 125.85 367.18 127.03 375.53 128.63 384.19 131.04 393.16 134.15" stroke-dasharray="1 1" transform="rotate(8.08, 400, 400)" opacity="0.67"></path><path d="M398.22 145.1C406.91 148.24 415.72 151.75 424.62 155.47 433.54 158.93 442.57 162.42 451.69 165.86 460.83 168.8 470.08 171.62 479.4 174.28 488.75 176.4 498.16 178.4 507.61 180.32 517.06 181.8 526.52 183.31 535.91 184.91 545.25 186.27 554.47 187.87 563.48 189.76 572.33 191.61 580.88 193.89 589.02 196.62 596.86 199.48 604.17 202.87 610.82 206.81 617.03 210.96 622.47 215.67 627.03 220.91 631.04 226.4 634.11 232.4 636.18 238.86 637.69 245.54 638.23 252.63 637.83 260.08 637.03 267.7 635.44 275.62 633.17 283.76 630.84 292.03 628.12 300.48 625.15 309.05 622.59 317.7 620.14 326.43 617.95 335.18 616.62 343.98 615.85 352.77 615.72 361.51 616.73 370.27 618.48 378.95 620.96 387.52 624.5 396.09 628.5 404.33 632.77 412.23 637.63 420.12 642.37 427.67 646.8 434.87 651.23 442.08 654.97 448.96 657.87 455.53 660.29 462.14 661.62 468.47 661.81 474.57 661.25 480.77 659.48 486.81 656.53 492.74 652.81 498.87 648 505 642.2 511.17 635.79 517.68 628.56 524.34 620.66 531.22 612.37 538.55 603.59 546.18 594.46 554.12 585.17 562.55 575.67 571.3 566.07 580.34 556.48 589.74 546.87 599.32 537.32 608.95 527.87 618.65 518.51 628.15 509.26 637.25 500.14 645.98 491.13 653.98 482.24 661.02 473.47 667.22 464.78 672.15 456.17 675.63 447.65 677.96 439.17 678.71 430.74 677.83 422.35 675.84 413.98 672.38 405.62 667.56 397.28 662.12 388.94 655.77 380.62 648.78 372.29 641.96 364.16 635.24 356.24 628.88 348.33 623.41 340.62 618.66 333.16 614.74 325.69 612.02 318.47 610.16 311.51 609.09 304.55 609.11 297.87 609.69 291.47 610.64 285.07 612.25 278.95 613.89 273.14 615.36 264.53 617.53 248.66 618.46 241.35 616.62 236.46 614.59 231.8 611.62 227.34 607.72 222.73 603.29 218.3 597.99 214.02 591.92 209.55 585.4 205.2 578.22 200.97 570.49 196.52 562.46 192.18 554 187.95 545.22 183.51 536.27 179.2 527.1 175.04 517.8 170.72 508.43 166.6 499 162.73 489.57 158.77 480.12 155.13 470.7 151.87 461.38 148.64 452.05 145.86 442.82 143.59 433.72 141.49 424.63 139.97 415.65 139.1 406.83 138.48 398.01 138.57 389.53 139.34 381.4 140.4 373.25 142.12 365.42 144.47 357.92 147.06 350.38 150.24 343.14 153.95 336.19 157.82 329.17 162.15 322.4 166.89 315.87 171.68 309.23 176.81 302.77 182.23 296.49 187.59 290.03 193.19 283.68 198.97 277.42 204.62 270.93 210.42 264.46 216.34 258 222.08 251.28 227.94 244.52 233.9 237.73 239.67 230.67 245.56 223.57 251.55 216.47 257.37 209.17 263.33 201.92 269.44 194.78 275.4 187.59 281.54 180.62 287.86 173.99 294.08 167.49 300.51 161.48 307.17 156.05 313.75 150.99 320.58 146.66 327.66 143.15 334.68 140.17 341.98 138.09 349.55 136.97 357.09 136.39 364.91 136.74 373.02 137.99 381.12 139.63 389.51 142.03 398.21 145.1" stroke-dasharray="1 4" transform="rotate(12.12, 400, 400)" opacity="0.35"></path><path d="M403.36 156.05C411.78 159.14 420.3 162.57 428.91 166.23 437.53 169.65 446.25 173.12 455.04 176.57 463.85 179.56 472.73 182.45 481.66 185.2 490.59 187.45 499.56 189.58 508.51 191.63 517.44 193.24 526.32 194.87 535.09 196.55 543.77 197.95 552.28 199.54 560.53 201.37 568.6 203.1 576.32 205.18 583.59 207.66 590.57 210.19 596.99 213.2 602.76 216.68 608.12 220.32 612.73 224.47 616.52 229.11 619.83 233.95 622.27 239.27 623.81 245.04 624.89 251 625.12 257.37 624.52 264.09 623.64 270.98 622.09 278.18 619.96 285.63 617.86 293.2 615.44 300.97 612.84 308.9 610.66 316.89 608.6 325.01 606.79 333.18 605.79 341.39 605.27 349.63 605.33 357.86 606.4 366.1 608.13 374.31 610.49 382.44 613.8 390.58 617.5 398.44 621.44 406.01 625.92 413.58 630.3 420.87 634.42 427.88 638.58 434.9 642.14 441.67 644.96 448.2 647.4 454.78 648.89 461.17 649.35 467.39 649.19 473.74 647.93 480 645.59 486.21 642.57 492.63 638.52 499.09 633.54 505.65 627.98 512.51 621.61 519.55 614.56 526.81 607.11 534.44 599.14 542.34 590.75 550.5 582.16 559.04 573.3 567.82 564.27 576.79 555.19 586 546.03 595.27 536.86 604.48 527.74 613.64 518.65 622.51 509.64 630.9 500.72 638.87 491.88 646.06 483.14 652.3 474.5 657.72 465.93 661.93 457.46 664.78 449.06 666.58 440.73 666.93 432.46 665.81 424.24 663.71 416.06 660.28 407.93 655.64 399.82 650.45 391.75 644.44 383.72 637.83 375.69 631.38 367.89 624.98 360.32 618.88 352.75 613.56 345.41 608.85 338.32 604.85 331.22 601.93 324.37 599.76 317.79 598.3 311.19 597.85 304.86 597.93 298.81 598.39 289.83 600.14 273.18 603.78 265.49 604.8 257.93 605.01 243.79 601.14 237.11 596.86 232.57 593.28 228.17 588.89 223.91 583.77 219.46 578.23 215.12 572.04 210.89 565.28 206.45 558.22 202.11 550.7 197.89 542.8 193.47 534.72 189.18 526.36 185.05 517.81 180.78 509.16 176.7 500.38 172.87 491.55 168.98 482.68 165.4 473.8 162.18 464.94 159.01 456.08 156.27 447.27 154.04 438.55 151.96 429.83 150.46 421.21 149.57 412.69 148.94 404.18 148.99 395.97 149.69 388.08 150.67 380.16 152.29 372.53 154.52 365.19 157 357.81 160.04 350.68 163.6 343.8 167.32 336.85 171.5 330.11 176.09 323.56 180.74 316.9 185.74 310.39 191.02 304 196.28 297.45 201.78 290.97 207.46 284.55 213.05 277.93 218.79 271.31 224.66 264.7 230.38 257.86 236.21 250.99 242.15 244.1 247.91 237 253.79 229.9 259.76 222.83 265.58 215.62 271.52 208.5 277.59 201.55 283.51 194.59 289.6 187.91 295.85 181.58 301.99 175.45 308.32 169.8 314.85 164.75 321.3 160.08 327.97 156.12 334.88 152.95 341.73 150.29 348.83 148.49 356.18 147.59 363.5 147.19 371.09 147.66 378.95 148.98 386.8 150.65 394.93 153.03 403.35 156.05" stroke-dasharray="10 6" transform="rotate(16.16, 400, 400)" opacity="0.51"></path><path d="M408.32 167C416.46 170.02 424.67 173.38 432.96 176.97 441.25 180.34 449.62 183.78 458.03 187.21 466.45 190.25 474.91 193.19 483.38 196.03 491.84 198.39 500.29 200.66 508.68 202.83 517.04 204.59 525.29 206.34 533.38 208.11 541.37 209.6 549.13 211.22 556.6 213.03 563.88 214.7 570.77 216.66 577.2 218.95 586.13 222.58 600.39 232.07 605.43 238.01 609.08 244.63 611.89 260.25 611.18 269.14 610.28 275.32 608.81 281.82 606.87 288.59 605.01 295.46 602.91 302.56 600.68 309.85 598.87 317.19 597.18 324.69 595.73 332.28 595.01 339.9 594.73 347.6 594.95 355.32 596.08 363.05 597.78 370.79 600.01 378.51 603.1 386.22 606.52 393.73 610.14 401.01 614.26 408.29 618.29 415.35 622.09 422.21 625.97 429.09 629.33 435.78 632.05 442.3 634.48 448.89 636.06 455.35 636.75 461.72 636.91 468.21 636.09 474.68 634.29 481.15 631.89 487.82 628.55 494.57 624.32 501.43 619.57 508.57 614.03 515.88 607.81 523.39 601.19 531.2 594.03 539.24 586.42 547.48 578.58 555.99 570.41 564.66 562.02 573.41 553.54 582.3 544.91 591.15 536.22 599.83 527.52 608.39 518.82 616.57 510.14 624.21 501.52 631.4 492.94 637.8 484.44 643.25 476.01 647.93 467.65 651.46 459.38 653.73 451.17 655.06 443.02 655.07 434.96 653.74 426.94 651.56 418.98 648.18 411.09 643.72 403.22 638.79 395.41 633.11 387.67 626.88 379.94 620.79 372.44 614.72 365.2 608.88 357.94 603.73 350.93 599.08 344.18 595.03 337.41 591.94 330.88 589.51 324.62 587.71 315.33 586.64 297.98 587.49 289.91 588.68 282.01 590.18 267.24 591.38 260.31 590.52 253.38 588.6 240.08 580.56 233.65 574.47 229.21 569.84 224.87 564.56 220.64 558.72 216.22 552.59 211.89 545.98 207.68 538.97 203.29 531.76 199.03 524.23 194.94 516.46 190.72 508.58 186.7 500.51 182.92 492.33 179.11 484.09 175.59 475.79 172.43 467.46 169.33 459.12 166.66 450.78 164.46 442.47 162.43 434.17 160.94 425.92 160.05 417.73 159.4 409.54 159.4 401.62 160.04 393.95 160.94 386.27 162.46 378.83 164.57 371.62 166.91 364.38 169.8 357.36 173.2 350.53 176.77 343.63 180.78 336.9 185.2 330.32 189.7 323.63 194.54 317.05 199.67 310.57 204.8 303.94 210.17 297.36 215.73 290.81 221.23 284.09 226.89 277.37 232.69 270.65 238.36 263.75 244.15 256.83 250.04 249.92 255.79 242.85 261.64 235.81 267.59 228.84 273.39 221.8 279.31 214.88 285.34 208.17 291.24 201.51 297.28 195.15 303.46 189.18 309.54 183.43 315.79 178.18 322.21 173.53 328.55 169.24 335.1 165.66 341.85 162.84 348.54 160.49 355.46 158.96 362.61 158.27 369.73 158.04 377.1 158.62 384.72 159.99 392.32 161.68 400.18 164.04 408.31 167" stroke-dasharray="1 7" transform="rotate(20.200000000000003, 400, 400)" opacity="0.88"></path><path d="M412.86 177.95C420.68 180.9 428.57 184.18 436.5 187.68 444.43 190.99 452.4 194.39 460.39 197.8 468.38 200.86 476.37 203.85 484.34 206.75 492.28 209.22 500.17 211.61 507.96 213.91 515.7 215.81 523.29 217.69 530.67 219.58 537.95 221.17 544.96 222.86 551.64 224.69 558.14 226.35 564.23 228.24 569.85 230.4 577.61 233.75 589.7 242.28 593.84 247.57 596.75 253.42 598.69 267.29 597.86 275.23 596.99 280.76 595.65 286.6 593.93 292.72 592.33 298.93 590.55 305.39 588.67 312.05 587.21 318.77 585.87 325.66 584.75 332.68 584.31 339.73 584.24 346.89 584.6 354.12 585.77 361.36 587.42 368.65 589.54 375.97 592.41 383.29 595.56 390.46 598.87 397.47 602.64 404.49 606.34 411.36 609.83 418.08 613.42 424.83 616.57 431.47 619.16 437.99 621.54 444.59 623.18 451.12 624.03 457.62 624.45 464.23 623.99 470.87 622.66 477.54 620.81 484.4 618.1 491.35 614.57 498.43 610.55 505.73 605.79 513.2 600.37 520.82 594.57 528.69 588.22 536.72 581.4 544.88 574.33 553.22 566.9 561.64 559.19 570.06 551.36 578.51 543.34 586.84 535.2 594.92 527.02 602.81 518.78 610.26 510.53 617.14 502.29 623.55 494.07 629.17 485.9 633.87 477.76 637.85 469.68 640.76 461.68 642.5 453.71 643.41 445.81 643.11 438 641.62 430.22 639.39 422.51 636.09 414.88 631.81 407.27 627.14 399.73 621.79 392.27 615.93 384.82 610.2 377.62 604.45 370.67 598.88 363.71 593.9 357 589.34 350.54 585.28 344.06 582.06 337.83 579.41 331.84 577.31 322.95 575.65 306.3 575.17 298.52 575.76 290.88 576.8 276.47 577.71 269.66 577.07 262.82 575.63 249.61 569.19 243.18 564.16 238.75 560.31 234.42 555.85 230.2 550.84 225.79 545.59 221.48 539.84 217.29 533.67 212.95 527.32 208.74 520.62 204.69 513.62 200.54 506.51 196.59 499.18 192.89 491.67 189.16 484.11 185.73 476.42 182.64 468.65 179.62 460.86 177.01 453.02 174.87 445.17 172.88 437.31 171.42 429.45 170.52 421.61 169.87 413.77 169.83 406.13 170.39 398.7 171.21 391.26 172.63 384 174.61 376.94 176.81 369.84 179.55 362.91 182.77 356.13 186.17 349.3 190 342.58 194.23 335.98 198.55 329.28 203.21 322.66 208.17 316.11 213.14 309.43 218.36 302.78 223.79 296.16 229.16 289.39 234.71 282.63 240.41 275.87 246 268.97 251.73 262.09 257.55 255.23 263.26 248.27 269.07 241.37 274.97 234.58 280.75 227.76 286.63 221.11 292.61 214.7 298.48 208.38 304.48 202.4 310.59 196.82 316.61 191.47 322.78 186.64 329.1 182.39 335.35 178.51 341.77 175.29 348.37 172.81 354.92 170.77 361.68 169.49 368.63 169 375.56 168.93 382.7 169.61 390.07 171.02 397.43 172.73 405.02 175.06 412.84 177.95" stroke-dasharray="10 10" transform="rotate(24.24, 400, 400)" opacity="0.50"></path><path d="M416.71 188.9C424.21 191.77 431.75 194.96 439.28 198.36 446.83 201.61 454.38 204.96 461.91 208.33 469.43 211.39 476.92 214.41 484.34 217.37 491.73 219.93 499.03 222.42 506.19 224.84 513.28 226.89 520.19 228.9 526.87 230.92 533.43 232.63 539.7 234.41 545.62 236.3 554.04 238.93 568.26 245.12 573.86 248.86 578.45 252.93 584.14 262.9 585.23 268.84 585.44 275.26 583.22 289.92 581.15 298.07 579.82 303.66 578.35 309.51 576.82 315.59 575.7 321.71 574.68 328.03 573.87 334.51 573.66 341.01 573.78 347.66 574.26 354.42 575.46 361.18 577.07 368.05 579.06 374.99 581.73 381.94 584.61 388.79 587.63 395.55 591.07 402.32 594.44 409 597.63 415.6 600.94 422.22 603.86 428.79 606.3 435.31 608.59 441.9 610.24 448.47 611.21 455.05 611.82 461.74 611.66 468.48 610.73 475.28 609.36 482.24 607.2 489.3 604.29 496.47 600.96 503.82 596.92 511.31 592.26 518.92 587.24 526.69 581.66 534.58 575.62 542.53 569.32 550.58 562.64 558.62 555.66 566.59 548.52 574.52 541.16 582.25 533.63 589.67 526.03 596.85 518.33 603.55 510.57 609.66 502.81 615.3 495.01 620.17 487.24 624.16 479.48 627.49 471.75 629.82 464.07 631.09 456.42 631.62 448.82 631.08 441.3 629.45 433.81 627.2 426.38 623.99 419.03 619.91 411.7 615.51 404.44 610.48 397.28 604.98 390.11 599.6 383.19 594.17 376.52 588.88 369.84 584.09 363.41 579.64 357.21 575.6 351 572.29 345.02 569.46 339.27 567.11 330.72 564.92 314.66 563.18 307.12 563.17 299.67 563.7 285.55 564.11 278.82 563.52 272.04 562.37 258.89 557.14 252.47 552.96 248.06 549.77 243.75 546.02 239.53 541.75 235.16 537.27 230.88 532.31 226.73 526.93 222.44 521.38 218.29 515.46 214.31 509.22 210.25 502.87 206.38 496.26 202.77 489.44 199.14 482.55 195.8 475.49 192.8 468.3 189.87 461.09 187.34 453.77 185.25 446.39 183.32 439 181.89 431.56 181 424.09 180.33 416.61 180.26 409.28 180.76 402.1 181.5 394.91 182.8 387.86 184.65 380.95 186.71 374.01 189.28 367.19 192.32 360.48 195.53 353.72 199.17 347.05 203.19 340.45 207.32 333.78 211.78 327.16 216.54 320.58 221.33 313.9 226.38 307.25 231.63 300.61 236.86 293.87 242.27 287.13 247.83 280.42 253.33 273.61 258.95 266.82 264.68 260.1 270.31 253.32 276.05 246.64 281.88 240.09 287.61 233.57 293.44 227.25 299.36 221.19 305.18 215.27 311.11 209.68 317.15 204.52 323.1 199.61 329.18 195.2 335.4 191.36 341.54 187.88 347.84 185.03 354.3 182.88 360.7 181.13 367.29 180.09 374.04 179.79 380.77 179.86 387.69 180.63 394.8 182.08 401.9 183.79 409.2 186.08 416.7 188.89" stroke-dasharray="4 10" transform="rotate(28.28, 400, 400)" opacity="0.48"></path><path d="M419.7 199.85C426.85 202.64 434 205.72 441.13 209.03 448.26 212.2 455.36 215.47 462.4 218.8 469.43 221.85 476.39 224.88 483.25 227.87 490.07 230.51 496.76 233.1 503.28 235.62 509.73 237.8 515.97 239.95 521.94 242.08 530.59 244.88 545.94 250.51 552.45 253.54 562.45 260.25 571.32 272.96 572.12 278.31 572.22 284.06 570.27 297.21 568.55 304.57 566.92 312.27 563.96 328.93 563.07 337.8 563.07 343.79 563.35 349.96 563.94 356.28 565.16 362.6 566.71 369.06 568.58 375.64 571.05 382.23 573.69 388.79 576.43 395.3 579.55 401.82 582.61 408.31 585.5 414.77 588.52 421.26 591.21 427.74 593.49 434.22 595.67 440.75 597.29 447.32 598.32 453.92 599.08 460.61 599.15 467.37 598.54 474.2 597.57 481.15 595.9 488.21 593.54 495.35 590.82 502.63 587.44 510.01 583.47 517.46 579.18 525.03 574.35 532.64 569.06 540.24 563.52 547.89 557.59 555.46 551.33 562.89 544.91 570.21 538.23 577.29 531.35 584 524.39 590.44 517.28 596.39 510.08 601.74 502.84 606.63 495.54 610.79 488.22 614.12 480.91 616.85 473.59 618.67 466.3 619.51 459.02 619.72 451.78 618.97 444.6 617.25 437.43 615 430.32 611.9 423.28 608.03 416.25 603.88 409.3 599.18 402.42 594.03 395.55 588.99 388.91 583.89 382.51 578.87 376.1 574.28 369.92 569.96 363.97 565.97 358 562.61 352.24 559.66 346.71 557.1 338.45 554.45 322.89 551.56 315.54 550.95 308.26 550.95 294.36 550.68 287.69 550.02 280.97 548.99 267.88 544.58 261.48 541.07 254.96 536.82 242.19 525.65 235.98 518.84 231.76 514.02 227.69 508.82 223.8 503.29 219.83 497.66 216.07 491.75 212.56 485.58 209.04 479.36 205.81 472.92 202.91 466.31 200.09 459.68 197.64 452.9 195.62 446 193.75 439.09 192.36 432.08 191.47 424.99 190.8 417.9 190.69 410.9 191.12 403.99 191.78 397.08 192.98 390.25 194.68 383.52 196.6 376.77 199 370.09 201.85 363.48 204.87 356.84 208.29 350.25 212.1 343.71 216.01 337.11 220.25 330.54 224.79 324.01 229.38 317.4 234.22 310.8 239.27 304.23 244.33 297.58 249.57 290.95 254.96 284.37 260.31 277.72 265.8 271.13 271.4 264.62 276.93 258.1 282.56 251.7 288.29 245.47 293.94 239.3 299.68 233.36 305.5 227.71 311.25 222.2 317.1 217.06 323.04 212.33 328.91 207.86 334.89 203.88 340.98 200.46 347.01 197.37 353.18 194.88 359.47 193.04 365.72 191.57 372.12 190.77 378.67 190.64 385.19 190.84 391.87 191.69 398.71 193.17 405.53 194.87 412.53 197.11 419.69 199.84" stroke-dasharray="8 10" transform="rotate(32.32, 400, 400)" opacity="0.24"></path><path d="M421.65 210.8C428.44 213.49 435.19 216.47 441.88 219.67 448.57 222.74 455.2 225.94 461.74 229.2 468.26 232.22 474.68 235.25 480.96 238.26 487.21 240.95 493.3 243.61 499.18 246.22 507.79 249.66 523.56 256.04 530.55 259.12 542.2 265.02 554.61 275.09 556.85 279.16 558.73 288.52 557.51 305.47 556.14 312.13 554.93 319.11 552.86 334.32 552.35 342.5 552.55 348.03 552.97 353.75 553.64 359.66 554.86 365.56 556.36 371.64 558.11 377.88 560.38 384.12 562.79 390.38 565.26 396.64 568.08 402.91 570.83 409.2 573.44 415.5 576.18 421.82 578.64 428.18 580.73 434.56 582.77 440.99 584.34 447.48 585.39 454.02 586.23 460.63 586.49 467.32 586.14 474.07 585.5 480.92 584.23 487.85 582.35 494.84 580.16 501.93 577.37 509.07 574.03 516.24 570.41 523.47 566.29 530.69 561.7 537.85 556.89 544.99 551.69 552 546.14 558.81 540.44 565.49 534.46 571.86 528.25 577.85 521.94 583.55 515.46 588.76 508.85 593.37 502.19 597.55 495.43 601.04 488.63 603.76 481.8 605.95 474.95 607.3 468.1 607.78 461.25 607.71 454.4 606.79 447.6 605.01 440.8 602.79 434.04 599.81 427.34 596.15 420.65 592.27 414.01 587.88 407.44 583.08 400.87 578.38 394.52 573.59 388.39 568.85 382.24 564.48 376.31 560.31 370.59 556.4 364.84 553.03 359.3 549.98 353.95 547.27 345.97 544.23 330.84 540.31 323.65 539.14 316.52 538.59 302.82 537.54 296.21 536.68 289.55 535.63 276.55 531.7 270.19 528.67 263.73 525.05 251.13 515.47 245.03 509.55 240.91 505.37 236.94 500.82 233.15 495.93 229.3 490.96 225.67 485.69 222.27 480.14 218.88 474.55 215.77 468.71 212.98 462.67 210.27 456.61 207.92 450.35 205.97 443.94 204.17 437.52 202.82 430.96 201.95 424.27 201.28 417.58 201.13 410.93 201.5 404.32 202.08 397.71 203.16 391.14 204.73 384.63 206.49 378.09 208.71 371.6 211.36 365.15 214.18 358.67 217.39 352.22 220.96 345.8 224.64 339.33 228.65 332.89 232.94 326.47 237.3 319.99 241.91 313.54 246.74 307.12 251.59 300.64 256.62 294.21 261.81 287.83 266.99 281.43 272.3 275.1 277.73 268.89 283.12 262.69 288.61 256.65 294.2 250.8 299.73 245.03 305.35 239.51 311.05 234.3 316.69 229.24 322.42 224.56 328.23 220.29 333.98 216.27 339.84 212.72 345.78 209.7 351.68 207 357.68 204.86 363.79 203.32 369.87 202.11 376.07 201.52 382.38 201.55 388.68 201.87 395.1 202.79 401.65 204.28 408.18 205.96 414.85 208.15 421.64 210.79" stroke-dasharray="11 6" transform="rotate(36.36, 400, 400)" opacity="0.48"></path><path d="M422.47 221.75C428.87 224.34 435.2 227.21 441.45 230.28 447.69 233.26 453.83 236.36 459.86 239.54 471.87 245.26 483.3 251.02 493.92 256.64 504.29 261.16 513.62 265.65 521.64 270.22 529.18 273.96 535.2 278.13 539.52 282.89 543.31 287.29 545.43 292.58 545.94 298.82 546.32 305.02 545.55 312.29 543.96 320.58 543.15 328.91 542.28 338.24 541.72 348.45 542.34 356.23 545.28 372.79 547.63 381.55 549.72 387.46 551.9 393.42 554.12 399.42 556.66 405.43 559.12 411.49 561.45 417.59 566.48 429.86 570.27 442.38 572.45 455.1 574.03 468.04 573.48 481.28 570.77 494.68 567.04 508.26 561.21 521.87 553.56 535.17 545.11 548.2 535.2 560.39 524.22 571.17 512.85 580.81 500.74 588.3 488.25 593.09 475.65 596.02 462.84 595.94 450.06 592.75 443.67 590.57 437.29 587.74 430.95 584.29 424.62 580.67 418.32 576.59 412.07 572.14 405.82 567.76 399.76 563.29 393.89 558.83 388.02 554.69 382.34 550.68 376.84 546.87 365.78 540.67 355.39 535.52 345.68 531.41 335.77 529.11 326.41 527.31 317.58 525.6 308.43 524.77 299.67 523.27 291.31 520.75 282.54 518.25 274.09 514.32 266.04 508.9 257.62 503.16 249.67 495.92 242.37 487.34 234.95 478.49 228.4 468.47 223 457.49 220.41 451.96 218.17 446.22 216.31 440.3 214.58 434.36 213.28 428.25 212.42 421.97 211.76 415.7 211.58 409.41 211.89 403.13 212.39 396.85 213.36 390.58 214.78 384.32 218.18 371.78 223.27 359.25 229.78 346.81 236.77 334.27 244.95 321.75 254.05 309.39 263.28 296.96 273.24 284.75 283.7 273.01 294.07 261.47 304.87 250.68 315.98 241.02 326.91 232.05 338.19 224.62 349.75 219.1 361.17 214.71 372.98 212.47 385.1 212.52 391.14 212.95 397.29 213.92 403.52 215.41 409.74 217.07 416.06 219.19 422.46 221.74" stroke-dasharray="5 1" transform="rotate(40.400000000000006, 400, 400)" opacity="0.47"></path><path d="M422.12 232.7C434.11 237.66 445.71 243.51 456.76 249.82 467.75 255.45 478.08 261.19 487.55 266.87 496.8 271.58 505 276.28 511.95 281.04 518.52 285.02 523.69 289.33 527.35 294.11 530.64 298.48 532.5 303.59 533 309.5 533.51 315.3 533.09 322.03 531.99 329.7 531.67 337.36 531.3 345.96 531.16 355.45 532.54 364.92 534.54 375.27 537.16 386.43 541.34 397.59 545.58 409.07 549.53 420.77 554.03 432.53 557.46 444.6 559.51 456.86 561.15 469.26 560.94 481.9 558.85 494.58 555.95 507.31 551.14 519.91 544.67 532.04 537.49 543.78 528.9 554.58 519.22 563.92 509.15 572.17 498.29 578.38 486.93 582.12 475.44 584.26 463.64 583.72 451.74 580.46 439.83 576 427.89 569.42 416.07 561.19 404.24 553.21 393.04 545.09 382.51 537.39 371.91 531.22 361.88 525.87 352.44 521.36 342.82 518.45 333.66 516.01 324.97 513.71 316 512.32 307.37 510.45 299.12 507.82 290.51 505.36 282.23 501.74 274.35 496.86 266.19 491.8 258.49 485.4 251.46 477.75 244.36 469.92 238.12 460.93 232.99 450.95 228.17 440.89 224.72 429.94 222.9 418.24 221.76 406.54 222.46 394.66 224.85 382.76 227.93 370.84 232.58 358.86 238.6 346.93 245.08 334.95 252.7 323 261.24 311.23 269.95 299.49 279.39 288.03 289.35 277.11 299.28 266.47 309.65 256.64 320.33 247.94 330.89 239.94 341.77 233.41 352.89 228.68 363.91 224.97 375.24 223.22 386.79 223.56 398.31 224.8 410.12 227.89 422.11 232.69" stroke-dasharray="2 6" transform="rotate(44.44, 400, 400)" opacity="0.57"></path><path d="M420.61 243.65C431.76 248.39 442.43 253.97 452.49 260.03 462.49 265.53 471.78 271.21 480.18 276.9 488.41 281.74 495.62 286.62 501.65 291.54 509.63 297.98 518.82 311.99 520.25 320.2 520.95 325.72 520.88 332.06 520.26 339.23 520.38 346.34 520.45 354.34 520.68 363.18 522.22 372 524.23 381.68 526.68 392.18 530.47 402.69 534.23 413.57 537.69 424.69 541.68 435.86 544.74 447.33 546.61 458.96 548.23 470.66 548.26 482.5 546.66 494.28 544.43 506 540.51 517.46 535.07 528.32 529.04 538.73 521.67 548.12 513.22 556.07 504.42 563.01 494.78 568.06 484.56 570.87 474.2 572.33 463.43 571.43 452.46 568.16 441.47 563.92 430.34 557.83 419.22 550.24 408.1 542.87 397.49 535.28 387.43 527.95 377.31 521.88 367.66 516.41 358.5 511.62 349.19 508.21 340.28 505.19 331.76 502.36 323.01 500.41 314.56 498.13 306.47 495.29 298.1 492.73 290.04 489.24 282.39 484.7 274.54 480.12 267.15 474.37 260.43 467.49 253.69 460.49 247.78 452.4 242.93 443.33 238.39 434.2 235.12 424.17 233.38 413.32 232.24 402.48 232.8 391.37 234.93 380.16 237.69 368.96 241.92 357.64 247.41 346.35 253.36 335.07 260.41 323.83 268.33 312.81 276.47 301.89 285.32 291.31 294.71 281.32 304.12 271.65 313.98 262.81 324.13 255.11 334.23 248.06 344.63 242.42 355.22 238.45 365.76 235.37 376.54 234.07 387.46 234.67 398.36 236.02 409.45 239.05 420.61 243.65" stroke-dasharray="7 5" transform="rotate(48.48, 400, 400)" opacity="0.80"></path><path d="M418.02 254.6C428.31 259.09 438.07 264.39 447.17 270.18 456.22 275.52 464.53 281.08 471.98 286.72 479.28 291.64 485.62 296.64 490.88 301.69 497.91 308.41 506.2 322.66 507.74 330.71 508.65 336.06 508.93 342.1 508.76 348.88 509.27 355.56 509.73 363.05 510.28 371.31 511.94 379.55 513.93 388.6 516.21 398.45 519.61 408.3 522.93 418.51 525.92 428.96 529.42 439.45 532.1 450.18 533.77 461.03 535.3 471.88 535.48 482.79 534.25 493.52 532.56 504.12 529.38 514.35 524.84 523.88 519.82 532.95 513.55 540.98 506.25 547.61 498.63 553.35 490.16 557.35 481.06 559.35 471.82 560.24 462.1 559.07 452.08 555.84 442.03 551.86 431.75 546.24 421.37 539.29 411 532.53 401 525.47 391.44 518.54 381.84 512.64 372.6 507.15 363.77 502.17 354.83 498.36 346.19 494.88 337.91 491.58 329.44 489.09 321.24 486.39 313.37 483.28 305.3 480.52 297.53 477.03 290.18 472.71 282.68 468.42 275.66 463.14 269.28 456.88 262.94 450.55 257.39 443.23 252.84 434.98 248.59 426.69 245.52 417.52 243.85 407.54 242.73 397.55 243.17 387.26 245.04 376.83 247.47 366.42 251.27 355.88 256.25 345.36 261.65 334.9 268.09 324.49 275.37 314.35 282.88 304.36 291.1 294.74 299.84 285.75 308.66 277.11 317.92 269.29 327.47 262.58 337.01 256.47 346.84 251.68 356.82 248.41 366.79 245.92 376.94 245.03 387.17 245.84 397.4 247.28 407.72 250.22 418.02 254.6" stroke-dasharray="7 1" transform="rotate(52.52, 400, 400)" opacity="0.22"></path><path d="M414.49 265.55C423.92 269.79 432.77 274.78 440.96 280.27 449.11 285.4 456.53 290.8 463.12 296.32 469.61 301.26 475.21 306.31 479.84 311.43 486.11 318.37 493.8 332.86 495.53 340.82 496.66 346.06 497.28 351.89 497.51 358.34 498.36 364.69 499.14 371.73 499.95 379.48 501.69 387.18 503.63 395.63 505.73 404.81 508.78 413.99 511.67 423.49 514.24 433.19 517.26 442.9 519.57 452.8 521.01 462.73 522.41 472.63 522.65 482.49 521.7 492.07 520.41 501.48 517.84 510.43 514.06 518.64 509.91 526.4 504.62 533.13 498.36 538.55 491.83 543.19 484.46 546.27 476.43 547.59 468.27 548.01 459.58 546.65 450.51 543.52 441.42 539.81 432.01 534.67 422.41 528.34 412.81 522.17 403.46 515.66 394.45 509.16 385.4 503.48 376.64 498.06 368.19 493 359.65 488.92 351.37 485.07 343.39 481.39 335.26 478.43 327.39 475.33 319.82 471.95 312.11 468.94 304.7 465.37 297.71 461.13 290.62 457 284.01 452.06 278.03 446.27 272.12 440.48 266.95 433.81 262.72 426.29 258.77 418.75 255.91 410.39 254.33 401.26 253.23 392.13 253.55 382.69 255.17 373.11 257.29 363.55 260.66 353.87 265.11 344.24 269.96 334.68 275.78 325.22 282.39 316.05 289.24 307.06 296.77 298.47 304.81 290.52 312.96 282.93 321.55 276.14 330.42 270.39 339.32 265.19 348.49 261.19 357.79 258.58 367.1 256.62 376.56 256.1 386.04 257.07 395.53 258.57 405.06 261.41 414.49 265.55" stroke-dasharray="5 9" transform="rotate(56.56, 400, 400)" opacity="0.37"></path><path d="M410.2 276.5C418.75 280.46 426.74 285.14 434.08 290.29 441.38 295.17 447.99 300.36 453.83 305.71 459.6 310.6 464.57 315.62 468.69 320.74 474.36 327.82 481.69 342.47 483.66 350.35 485 355.52 485.92 361.18 486.51 367.34 487.64 373.4 488.67 380.05 489.68 387.3 491.45 394.51 493.33 402.37 495.26 410.86 497.96 419.35 500.46 428.09 502.63 436.96 505.2 445.83 507.15 454.81 508.35 463.73 509.57 472.61 509.82 481.34 509.05 489.73 508.06 497.92 505.97 505.6 502.82 512.53 499.4 519.03 494.96 524.57 489.62 528.88 484.07 532.56 477.71 534.85 470.69 535.6 463.56 535.65 455.87 534.18 447.75 531.2 439.59 527.77 431.07 523.11 422.27 517.39 413.47 511.8 404.83 505.84 396.41 499.8 387.97 494.41 379.72 489.14 371.72 484.1 363.67 479.85 355.81 475.76 348.2 471.79 340.5 468.45 333.02 465.02 325.84 461.38 318.56 458.11 311.58 454.41 305.01 450.21 298.39 446.14 292.24 441.43 286.69 436.02 281.22 430.64 276.46 424.51 272.57 417.66 268.94 410.79 266.29 403.19 264.8 394.9 263.74 386.61 263.95 378.05 265.33 369.36 267.15 360.7 270.1 351.96 274.03 343.29 278.32 334.7 283.51 326.25 289.43 318.12 295.59 310.17 302.4 302.65 309.7 295.76 317.12 289.2 324.97 283.41 333.1 278.59 341.28 274.24 349.72 270.99 358.27 268.97 366.85 267.49 375.55 267.27 384.24 268.38 392.95 269.9 401.64 272.62 410.2 276.5" stroke-dasharray="9 2" transform="rotate(60.599999999999994, 400, 400)" opacity="0.27"></path><path d="M405.38 287.45C413.07 291.12 420.21 295.46 426.75 300.26 433.27 304.85 439.14 309.77 444.33 314.89 449.48 319.64 453.93 324.57 457.64 329.62 462.84 336.71 469.96 351.36 472.16 359.14 473.69 364.23 474.87 369.71 475.75 375.6 477.1 381.39 478.33 387.67 479.47 394.44 481.25 401.17 483.03 408.43 484.78 416.21 487.16 423.99 489.3 431.93 491.1 439.92 493.26 447.9 494.86 455.9 495.81 463.77 496.84 471.57 497.04 479.15 496.38 486.34 495.59 493.33 493.87 499.79 491.24 505.51 486.56 513.08 472.75 522.3 463.95 523.42 457.77 523.2 451.03 521.68 443.82 518.88 436.59 515.76 428.94 511.57 420.97 506.44 412.99 501.41 405.08 496.01 397.3 490.46 389.52 485.41 381.86 480.37 374.39 475.45 366.88 471.15 359.52 466.93 352.38 462.79 345.18 459.18 338.18 455.49 331.46 451.66 324.68 448.16 318.19 444.34 312.1 440.14 306.01 436.1 300.35 431.55 295.26 426.46 290.27 421.41 285.94 415.75 282.39 409.49 279.08 403.22 276.67 396.34 275.28 388.87 274.26 381.41 274.37 373.72 275.52 365.96 277.05 358.23 279.59 350.46 283.02 342.79 286.75 335.21 291.31 327.81 296.54 320.74 302 313.85 308.06 307.4 314.58 301.55 321.23 295.99 328.29 291.16 335.62 287.2 343.03 283.65 350.66 281.07 358.41 279.57 366.2 278.51 374.09 278.55 381.95 279.75 389.84 281.27 397.68 283.84 405.38 287.45" stroke-dasharray="4 2" transform="rotate(64.64, 400, 400)" opacity="0.51"></path><path d="M400.27 298.39C407.11 301.77 413.45 305.75 419.25 310.16 425.03 314.43 430.24 319.03 434.86 323.85 439.46 328.41 443.46 333.16 446.85 338.04 451.66 345.02 458.65 359.45 461.06 367.03 463.43 374.65 467.41 391.35 469.33 400.56 471.06 406.8 472.74 413.45 474.31 420.5 476.38 427.54 478.18 434.65 479.65 441.73 481.42 448.79 482.69 455.79 483.41 462.59 484.22 469.31 484.34 475.77 483.74 481.79 482.36 490.3 475.52 503.61 470.12 507.88 463.85 510.55 448.08 509.9 438.83 506.57 432.48 503.77 425.71 500.04 418.57 495.49 411.43 491.02 404.28 486.17 397.21 481.13 390.13 476.47 383.12 471.72 376.24 467.02 369.34 462.78 362.56 458.56 355.97 454.37 349.34 450.6 342.9 446.76 336.71 442.82 330.51 439.16 324.58 435.26 319.02 431.09 313.48 427.07 308.36 422.67 303.76 417.85 299.28 413.09 295.38 407.85 292.19 402.14 289.22 396.44 287.03 390.24 285.75 383.57 284.78 376.9 284.81 370.1 285.75 363.27 287.01 356.47 289.16 349.68 292.09 343.04 295.29 336.48 299.22 330.12 303.77 324.11 308.51 318.25 313.81 312.83 319.54 307.98 325.4 303.37 331.63 299.42 338.13 296.26 344.71 293.43 351.5 291.44 358.41 290.4 365.36 289.7 372.4 289.94 379.41 291.18 386.44 292.67 393.43 295.08 400.27 298.39" stroke-dasharray="10 9" transform="rotate(68.68, 400, 400)" opacity="0.71"></path><path d="M395.15 309.34C407.16 315.45 417.42 323.53 425.65 332.62 433.86 340.95 440.16 350.12 444.53 359.75 449.29 368.65 452.7 378.44 454.96 389.02 458.44 399.33 461.46 410.87 463.83 423.45 467.75 436.03 470.3 448.48 471.17 460.05 472.42 471.35 471.21 481.24 467.48 488.73 463.47 495.28 456.83 498.79 447.95 498.58 438.86 497.27 427.79 492.51 415.2 484.54 402.6 476.84 389.79 467.92 377.37 458.78 364.93 451.03 352.82 443.03 341.66 434.89 330.54 427.68 320.46 419.57 312.22 410.44 304.39 401.53 298.78 391.11 296.23 379.34 294.68 367.56 296.56 355.6 301.26 344.25 306.84 333.18 314.91 323.15 324.66 315.1 334.87 307.82 346.4 303.04 358.44 301.45 370.64 300.85 383.14 303.44 395.15 309.34" stroke-dasharray="7 9" transform="rotate(72.72, 400, 400)" opacity="0.79"></path><path d="M390.29 320.29C400.67 325.75 409.62 332.97 416.91 341.19 424.22 348.89 430.02 357.45 434.28 366.44 438.89 374.92 442.41 384.13 444.91 393.88 448.35 403.43 451.24 413.85 453.36 424.88 456.63 435.9 458.6 446.5 459.09 456.06 459.95 465.41 458.77 473.32 455.53 479.05 452.15 484.11 446.58 486.57 439.06 485.97 431.4 484.64 421.94 480.47 411.03 473.59 400.12 466.92 388.88 459.02 377.9 450.73 366.94 443.41 356.24 435.71 346.38 427.85 336.62 420.7 327.81 412.87 320.63 404.37 313.84 396.07 308.96 386.7 306.7 376.45 305.24 366.19 306.69 356.04 310.56 346.63 315.11 337.42 321.82 329.3 330.02 322.97 338.62 317.21 348.42 313.62 358.71 312.72 369.15 312.52 379.9 315 390.29 320.29" stroke-dasharray="8 11" transform="rotate(76.76, 400, 400)" opacity="0.58"></path><path d="M385.93 331.24C394.74 336.01 402.43 342.33 408.84 349.57 415.28 356.5 420.56 364.25 424.63 372.41 429.01 380.23 432.5 388.65 435.08 397.41 438.35 406.04 441.03 415.23 442.88 424.68 445.57 434.13 447.02 442.94 447.2 450.64 447.11 461.27 438.49 473.26 429.85 473.28 423.48 472.02 415.54 468.45 406.29 462.64 397.04 456.98 387.42 450.14 377.99 442.82 368.59 436.14 359.4 428.99 350.95 421.66 342.61 414.83 335.11 407.49 329.03 399.74 323.27 392.15 319.13 383.86 317.18 375.09 315.83 366.31 316.9 357.89 319.98 350.28 323.58 342.81 329 336.41 335.71 331.59 342.73 327.16 350.82 324.57 359.4 324.2 368.1 324.3 377.12 326.6 385.93 331.24" stroke-dasharray="8 8" transform="rotate(80.80000000000001, 400, 400)" opacity="0.76"></path><path d="M382.31 342.19C389.58 346.24 396.06 351.6 401.57 357.79 407.13 363.8 411.84 370.56 415.63 377.69 419.64 384.63 422.95 392.05 425.46 399.65 428.45 407.18 430.84 415.03 432.41 422.88 435.05 434.28 435.1 452.11 432.06 457.53 427.67 460.86 412.09 457.93 401.22 451.69 393.6 447.02 385.65 441.29 377.82 435.03 370.04 429.17 362.43 422.8 355.44 416.24 348.56 410.01 342.4 403.38 337.42 396.53 332.7 389.8 329.29 382.66 327.65 375.35 326.45 368.04 327.19 361.23 329.55 355.26 332.28 349.38 336.5 344.49 341.8 340.96 347.32 337.67 353.77 335.89 360.69 335.89 367.69 336.17 375.04 338.24 382.31 342.19" stroke-dasharray="8 5" transform="rotate(84.84, 400, 400)" opacity="0.83"></path><path d="M379.61 353.14C391.17 359.72 400.72 370.43 407.28 382.36 414.47 393.92 419.76 407.08 421.93 419.59 425.25 436.78 412.38 449 396.08 440.74 384.04 433.49 371.02 422.82 359.95 411.52 349.25 400.95 341.02 388.95 338.13 377.22 336.37 365.48 340.52 356.14 348.35 351.04 356.76 346.47 368.05 346.79 379.61 353.14" stroke-dasharray="9 6" transform="rotate(88.88, 400, 400)" opacity="0.65"></path><path d="M377.98 364.09C386.61 369.12 394.12 377.32 399.57 386.5 405.39 395.54 409.73 405.7 411.46 415.02 413.6 427.65 403.29 435.94 391.15 429.79 382.23 424.38 372.65 416.19 364.57 407.36 356.74 398.88 350.74 389.41 348.6 380.57 348.52 368.41 365.3 358.94 377.98 364.09" stroke-dasharray="10 3" transform="rotate(92.92, 400, 400)" opacity="0.82"></path><path d="M377.5 375.04C389 381.85 398.91 397.15 400.98 409.48 404.39 421.8 398.45 426.11 386.68 418.84 374.91 411.81 362.15 397.06 359.08 385.18 357.22 373.29 365.99 368.46 377.5 375.04" stroke-dasharray="9 2" transform="rotate(96.96, 400, 400)" opacity="0.71"></path></g></svg>