<svg xmlns="http://www.w3.org/2000/svg" version="1.1" xmlns:xlink="http://www.w3.org/1999/xlink" xmlns:svgjs="http://svgjs.dev/svgjs" viewBox="0 0 800 800" opacity="0.88"><defs><linearGradient x1="50%" y1="0%" x2="50%" y2="100%" id="wwwhirl-grad"><stop stop-color="#FFD369" stop-opacity="1" offset="45%"></stop><stop stop-color="hsl(331, 90%, 56%)" stop-opacity="1" offset="100%"></stop></linearGradient></defs><g stroke-width="2" stroke="url(#wwwhirl-grad)" fill="none" stroke-linecap="round"><path d="M76.25 425.3445517619451C94.23611111111111 405.78465592861176 112.22222222222223 348.0042739841673 148.19444444444446 347.10496842861176C184.16666666666669 346.2056628730562 184.16666666666669 419.7238920397229 220.13888888888889 421.7473295397229C256.1111111111111 423.7707670397229 256.1111111111111 352.50080176194507 292.08333333333337 355.19871842861176C328.05555555555554 357.89663509527844 328.05555555555554 434.11278092861176 364.02777777777777 432.5389962063895C400 430.9652114841673 400 354.52423926194507 435.97222222222223 348.90357953972284C471.94444444444446 343.28291981750067 471.94444444444446 409.60670453972284 507.9166666666667 410.05635731750067C543.8888888888889 410.50601009527844 543.8888888888889 340.1353503730562 579.8611111111111 350.702190650834C615.8333333333334 361.26903092861176 615.8333333333334 445.1292739841673 651.8055555555555 452.32371842861176C687.7777777777778 459.5181628730562 705.7638888888889 397.69090592861176 723.75 379.47996842861176 " transform="rotate(111, 400, 400)"></path><path d="M85 424.65956449508667C102.5 405.62831449508667 120 349.40956449508667 155 348.53456449508667C190 347.65956449508667 190 419.19081449508667 225 421.15956449508667C260 423.12831449508667 260 353.78456449508667 295 356.40956449508667C330 359.03456449508667 330 433.19081449508667 365 431.65956449508667C400 430.12831449508667 400 355.75331449508667 435 350.28456449508667C470 344.81581449508667 470 409.34706449508667 505 409.78456449508667C540 410.22206449508667 540 341.75331449508667 575 352.03456449508667C610 362.31581449508667 610 443.90956449508667 645 450.90956449508667C680 457.90956449508667 697.5 397.75331449508667 715 380.03456449508667 " transform="rotate(108, 400, 400)"></path><path d="M93.75 423.9745772282282C110.76388888888889 405.4719730615616 127.77777777777777 350.81485500600604 161.80555555555554 349.9641605615616C195.83333333333331 349.1134661171171 195.83333333333331 418.6577369504505 229.86111111111111 420.5717994504505C263.8888888888889 422.4858619504505 263.8888888888889 355.06832722822827 297.91666666666663 357.6204105615616C331.94444444444446 360.1724938948949 331.94444444444446 432.2688480615616 365.97222222222223 430.7801327837838C400 429.29141750600604 400 356.98238972822827 434.02777777777777 351.6655494504505C468.05555555555554 346.34870917267267 468.05555555555554 409.0874244504505 502.0833333333333 409.51277167267267C536.1111111111111 409.9381188948949 536.1111111111111 343.3712786171171 570.1388888888889 353.36693833933936C604.1666666666667 363.3625980615616 604.1666666666667 442.68985500600604 638.1944444444445 449.4954105615616C672.2222222222222 456.3009661171171 689.2361111111111 397.8157230615616 706.25 380.5891605615616 " transform="rotate(105, 400, 400)"></path><path d="M102.5 423.28958996136987C119.02777777777777 405.3156316280365 135.55555555555554 352.2201455169254 168.61111111111111 351.3937566280365C201.66666666666669 350.5673677391476 201.66666666666669 418.12465940581427 234.72222222222223 419.98403440581427C267.77777777777777 421.84340940581427 267.77777777777777 356.3520899613698 300.83333333333337 358.8312566280365C333.8888888888889 361.3104232947032 333.8888888888889 431.3468816280365 366.94444444444446 429.90070107248096C400 428.4545205169254 400 358.2114649613698 433.05555555555554 353.04653440581427C466.1111111111111 347.8816038502587 466.1111111111111 408.82778440581427 499.1666666666667 409.2409788502587C532.2222222222222 409.6541732947032 532.2222222222222 344.9892427391476 565.2777777777778 354.69931218359204C598.3333333333333 364.4093816280365 598.3333333333333 441.4701455169254 631.3888888888889 448.0812566280365C664.4444444444445 454.69236773914764 680.9722222222222 397.8781316280365 697.5 381.1437566280365 " transform="rotate(102, 400, 400)"></path><path d="M111.25 422.6046026945114C127.29166666666667 405.1592901945114 143.33333333333334 353.6254360278447 175.41666666666669 352.8233526945114C207.5 352.0212693611781 207.5 417.5915818611781 239.58333333333334 419.3962693611781C271.66666666666663 421.2009568611781 271.66666666666663 357.6358526945114 303.75 360.0421026945114C335.83333333333337 362.4483526945114 335.83333333333337 430.4249151945114 367.9166666666667 429.0212693611781C400 427.6176235278448 400 359.4405401945114 432.0833333333333 354.4275193611781C464.1666666666667 349.4144985278447 464.1666666666667 408.5681443611781 496.25 408.9691860278447C528.3333333333333 409.3702276945114 528.3333333333333 346.6072068611781 560.4166666666667 356.0316860278447C592.5 365.4561651945114 592.5 440.2504360278448 624.5833333333334 446.6671026945114C656.6666666666666 453.0837693611781 672.7083333333334 397.9405401945114 688.75 381.6983526945114 " transform="rotate(99, 400, 400)"></path><path d="M120 421.919615427653C135.55555555555554 405.0029487609863 151.11111111111111 355.0307265387641 182.22222222222223 354.2529487609863C213.33333333333331 353.47517098320856 213.33333333333331 417.05850431654187 244.44444444444446 418.80850431654187C275.55555555555554 420.55850431654187 275.55555555555554 358.919615427653 306.66666666666663 361.2529487609863C337.77777777777777 363.58628209431964 337.77777777777777 429.5029487609863 368.8888888888889 428.14183764987524C400 426.7807265387641 400 360.669615427653 431.1111111111111 355.80850431654187C462.22222222222223 350.9473932054308 462.22222222222223 408.30850431654187 493.3333333333333 408.6973932054308C524.4444444444445 409.08628209431964 524.4444444444445 348.22517098320856 555.5555555555555 357.3640598720974C586.6666666666667 366.5029487609863 586.6666666666667 439.0307265387641 617.7777777777778 445.2529487609863C648.8888888888889 451.47517098320856 664.4444444444445 398.0029487609863 680 382.2529487609863 " transform="rotate(96, 400, 400)"></path><path d="M128.75 421.23462816079456C143.81944444444446 404.84660732746124 158.88888888888889 356.43601704968347 189.02777777777777 355.68254482746124C219.16666666666669 354.929072605239 219.16666666666669 416.5254267719057 249.30555555555554 418.2207392719057C279.44444444444446 419.9160517719057 279.44444444444446 360.20337816079456 309.58333333333337 362.46379482746124C339.72222222222223 364.7242114941279 339.72222222222223 428.58098232746124 369.8611111111111 427.26240593857233C400 425.94382954968347 400 361.89869066079456 430.1388888888889 357.1894892719057C460.27777777777777 352.4802878830168 460.27777777777777 408.0488642719057 490.4166666666667 408.4256003830168C520.5555555555555 408.8023364941279 520.5555555555555 349.843135105239 550.6944444444445 358.69643371635016C580.8333333333333 367.54973232746124 580.8333333333333 437.81101704968347 610.9722222222222 443.83879482746124C641.1111111111111 449.866572605239 656.1805555555555 398.06535732746124 671.25 382.80754482746124 " transform="rotate(93, 400, 400)"></path><path d="M137.5 420.54964089393616C152.08333333333331 404.69026589393616 166.66666666666669 357.84130756060284 195.83333333333334 357.11214089393616C225 356.3829742272695 225 415.9923492272695 254.16666666666669 417.6329742272695C283.33333333333337 419.2735992272695 283.33333333333337 361.48714089393616 312.5 363.67464089393616C341.66666666666663 365.86214089393616 341.66666666666663 427.65901589393616 370.83333333333337 426.38297422726953C400 425.10693256060284 400 363.12776589393616 429.1666666666667 358.5704742272695C458.3333333333333 354.01318256060284 458.3333333333333 407.7892242272695 487.5 408.15380756060284C516.6666666666667 408.51839089393616 516.6666666666667 351.4610992272695 545.8333333333333 360.02880756060284C575 368.59651589393616 575 436.59130756060284 604.1666666666667 442.42464089393616C633.3333333333333 448.25797422726953 647.9166666666667 398.12776589393616 662.5 383.36214089393616 " transform="rotate(90, 400, 400)"></path><path d="M146.25 419.8646498123805C160.34722222222223 404.5339206457138 174.44444444444446 359.2465942568249 202.63888888888889 358.5417331457138C230.83333333333331 357.8368720346027 230.83333333333331 415.45926786793603 259.02777777777777 417.04520536793603C287.22222222222223 418.63114286793603 287.22222222222223 362.7708998123805 315.41666666666663 364.8854831457138C343.6111111111111 367.0000664790471 343.6111111111111 426.7370456457138 371.80555555555554 425.50353870126935C400 424.2700317568249 400 364.3568373123805 428.19444444444446 359.95145536793603C456.3888888888889 355.5460734234916 456.3888888888889 407.52958036793603 484.5833333333333 407.8820109234916C512.7777777777778 408.2344414790471 512.7777777777778 353.0790595346027 540.9722222222222 361.36117759015826C569.1666666666667 369.6432956457138 569.1666666666667 435.37159425682495 597.3611111111111 441.0104831457138C625.5555555555555 446.6493720346027 639.6527777777778 398.1901706457138 653.75 383.9167331457138 " transform="rotate(87, 400, 400)"></path><path d="M155 419.17966254552204C168.61111111111111 404.3775792121887 182.22222222222223 360.65188476774426 209.44444444444446 359.9713292121887C236.66666666666669 359.2907736566332 236.66666666666669 414.9261903232998 263.8888888888889 416.4574403232998C291.1111111111111 417.9886903232998 291.1111111111111 364.05466254552204 318.33333333333337 366.0963292121887C345.55555555555554 368.1379958788554 345.55555555555554 425.8150792121887 372.77777777777777 424.6241069899665C400 423.43313476774426 400 365.58591254552204 427.22222222222223 361.3324403232998C454.44444444444446 357.07896810107763 454.44444444444446 407.2699403232998 481.6666666666667 407.61021810107763C508.8888888888889 407.9504958788554 508.8888888888889 354.6970236566332 536.1111111111111 362.69355143441095C563.3333333333333 370.6900792121887 563.3333333333333 434.15188476774426 590.5555555555555 439.5963292121887C617.7777777777778 445.0407736566332 631.3888888888889 398.2525792121887 645 384.4713292121887 " transform="rotate(84, 400, 400)"></path><path d="M163.75 418.49467527866364C176.875 404.22123777866364 190 362.05717527866364 216.25 361.40092527866364C242.5 360.74467527866364 242.5 414.39311277866364 268.75 415.86967527866364C295 417.34623777866364 295 365.33842527866364 321.25 367.30717527866364C347.5 369.27592527866364 347.5 424.89311277866364 373.75 423.74467527866364C400 422.59623777866364 400 366.81498777866364 426.25 362.71342527866364C452.5 358.61186277866364 452.5 407.01030027866364 478.75 407.33842527866364C505 407.66655027866364 505 356.31498777866364 531.25 364.02592527866364C557.5 371.73686277866364 557.5 432.93217527866364 583.75 438.18217527866364C610 443.43217527866364 623.125 398.31498777866364 636.25 385.02592527866364 " transform="rotate(81, 400, 400)"></path><path d="M172.5 417.80968801180524C185.13888888888889 404.06489634513855 197.77777777777777 363.462465789583 223.05555555555554 362.83052134513855C248.33333333333331 362.1985769006941 248.33333333333331 413.86003523402746 273.6111111111111 415.28191023402746C298.8888888888889 416.70378523402746 298.8888888888889 366.62218801180524 324.16666666666663 368.51802134513855C349.44444444444446 370.41385467847186 349.44444444444446 423.97114634513855 374.72222222222223 422.8652435673608C400 421.759340789583 400 368.04406301180524 425.27777777777777 364.09441023402746C450.55555555555554 360.14475745624964 450.55555555555554 406.75066023402746 475.8333333333333 407.06663245624964C501.1111111111111 407.38260467847186 501.1111111111111 357.9329519006941 526.3888888888889 365.3582991229163C551.6666666666667 372.78364634513855 551.6666666666667 431.712465789583 576.9444444444445 436.76802134513855C602.2222222222222 441.8235769006941 614.8611111111111 398.37739634513855 627.5 385.58052134513855 " transform="rotate(78, 400, 400)"></path><path d="M181.25 417.1246969302495C193.40277777777777 403.9085510969162 205.55555555555554 364.8677524858051 229.86111111111111 364.2601135969162C254.16666666666669 363.6524747080273 254.16666666666669 413.32695387469397 278.47222222222223 414.69414137469397C302.77777777777777 416.06132887469397 302.77777777777777 367.9059469302495 327.08333333333337 369.7288635969162C351.3888888888889 371.5517802635829 351.3888888888889 423.0491760969162 375.69444444444446 421.98580804136066C400 420.9224399858051 400 369.2731344302495 424.30555555555554 365.47539137469397C448.6111111111111 361.6776483191384 448.6111111111111 406.49101637469397 472.9166666666667 406.7948358191384C497.22222222222223 407.0986552635829 497.22222222222223 359.5509122080273 521.5277777777778 366.69066915247174C545.8333333333333 373.8304260969162 545.8333333333333 430.4927524858051 570.1388888888889 435.3538635969162C594.4444444444445 440.21497470802734 606.5972222222222 398.4398010969162 618.75 386.1351135969162 " transform="rotate(75, 400, 400)"></path><path d="M190 416.4397096633911C201.66666666666669 403.7522096633911 213.33333333333331 366.2730429967244 236.66666666666666 365.6897096633911C260 365.1063763300578 260 412.7938763300578 283.3333333333333 414.1063763300578C306.6666666666667 415.4188763300578 306.6666666666667 369.1897096633911 330 370.9397096633911C353.33333333333337 372.6897096633911 353.33333333333337 422.1272096633911 376.66666666666663 421.1063763300578C400 420.0855429967244 400 370.5022096633911 423.33333333333337 366.8563763300578C446.6666666666667 363.2105429967244 446.6666666666667 406.2313763300578 470 406.5230429967244C493.3333333333333 406.8147096633911 493.3333333333333 361.1688763300578 516.6666666666667 368.0230429967244C540 374.8772096633911 540 429.2730429967244 563.3333333333333 433.9397096633911C586.6666666666667 438.6063763300578 598.3333333333333 398.5022096633911 610 386.6897096633911 " transform="rotate(72, 400, 400)"></path><path d="M198.75 415.75472621123C209.93055555555554 403.5958720445633 221.11111111111111 367.67833732234106 243.47222222222223 367.1193095445633C265.8333333333333 366.5602817667855 265.8333333333333 412.26080260011884 288.19444444444446 413.51861510011884C310.55555555555554 414.77642760011884 310.55555555555554 370.47347621123 332.91666666666663 372.1505595445633C355.27777777777777 373.8276428778966 355.27777777777777 421.2052470445633 377.6388888888889 420.2269484334522C400 419.24864982234106 400 371.73128871123 422.3611111111111 368.23736510011884C444.72222222222223 364.74344148900775 444.72222222222223 405.97174010011884 467.0833333333333 406.25125398900775C489.44444444444446 406.5307678778966 489.44444444444446 362.7868442667855 511.80555555555554 369.3554206556744C534.1666666666667 375.9239970445633 534.1666666666667 428.05333732234106 556.5277777777778 432.5255595445633C578.8888888888889 436.9977817667855 590.0694444444445 398.5646220445633 601.25 387.2443095445633 " transform="rotate(69, 400, 400)"></path><path d="M207.5 415.06973512967426C218.19444444444446 403.43952679634094 228.88888888888889 369.08362401856317 250.27777777777777 368.54890179634094C271.6666666666667 368.0141795741187 271.6666666666667 411.7277212407854 293.05555555555554 412.9308462407854C314.44444444444446 414.1339712407854 314.44444444444446 371.75723512967426 335.83333333333337 373.36140179634094C357.22222222222223 374.9655684630076 357.22222222222223 420.28327679634094 378.6111111111111 419.347512907452C400 418.41174901856317 400 372.96036012967426 421.3888888888889 369.6183462407854C442.77777777777777 366.2763323518965 442.77777777777777 405.7120962407854 464.1666666666667 405.9794573518965C485.55555555555554 406.2468184630076 485.55555555555554 364.4048045741187 506.94444444444446 370.68779068522986C528.3333333333333 376.97077679634094 528.3333333333333 426.83362401856317 549.7222222222222 431.11140179634094C571.1111111111111 435.3891795741187 581.8055555555555 398.62702679634094 592.5 387.79890179634094 " transform="rotate(66, 400, 400)"></path><path d="M216.25 414.38474786281586C226.45833333333331 403.28318536281586 236.66666666666669 370.48891452948254 257.08333333333337 369.97849786281586C277.5 369.46808119614917 277.5 411.19464369614917 297.9166666666667 412.34308119614917C318.3333333333333 413.49151869614917 318.3333333333333 373.04099786281586 338.75 374.57224786281586C359.16666666666663 376.10349786281586 359.16666666666663 419.36131036281586 379.58333333333337 418.46808119614917C400 417.57485202948254 400 374.18943536281586 420.41666666666663 370.99933119614917C440.83333333333337 367.80922702948254 440.83333333333337 405.45245619614917 461.25 405.70766452948254C481.6666666666667 405.96287286281586 481.6666666666667 366.02276869614917 502.0833333333333 372.02016452948254C522.5 378.01756036281586 522.5 425.61391452948254 542.9166666666667 429.69724786281586C563.3333333333333 433.78058119614917 573.5416666666667 398.68943536281586 583.75 388.35349786281586 " transform="rotate(63, 400, 400)"></path><path d="M225 413.69976059595746C234.72222222222223 403.12684392929077 244.44444444444446 371.89420504040186 263.8888888888889 371.40809392929077C283.33333333333337 370.9219828181797 283.33333333333337 410.661566151513 302.77777777777777 411.755316151513C322.22222222222223 412.849066151513 322.22222222222223 374.32476059595746 341.6666666666667 375.78309392929077C361.1111111111111 377.2414272626241 361.1111111111111 418.43934392929077 380.55555555555554 417.5886494848463C400 416.73795504040186 400 375.41851059595746 419.44444444444446 372.380316151513C438.8888888888889 369.34212170706854 438.8888888888889 405.192816151513 458.33333333333337 405.43587170706854C477.77777777777777 405.6789272626241 477.77777777777777 367.6407328181797 497.22222222222223 373.35253837373523C516.6666666666667 379.06434392929077 516.6666666666667 424.39420504040186 536.1111111111111 428.28309392929077C555.5555555555555 432.1719828181797 565.2777777777778 398.75184392929077 575 388.90809392929077 " transform="rotate(60, 400, 400)"></path><path d="M233.75 413.014773329099C242.98611111111111 402.9705024957657 252.22222222222223 373.29949555132123 270.69444444444446 372.8376899957657C289.16666666666663 372.37588444021014 289.16666666666663 410.1284886068768 307.6388888888889 411.1675511068768C326.1111111111111 412.2066136068768 326.1111111111111 375.608523329099 344.5833333333333 376.9939399957657C363.05555555555554 378.3793566624324 363.05555555555554 417.5173774957657 381.52777777777777 416.70921777354346C400 415.90105805132123 400 376.647585829099 418.47222222222223 373.7613011068768C436.94444444444446 370.8750163846546 436.94444444444446 404.9331761068768 455.41666666666663 405.1640788846546C473.8888888888889 405.3949816624324 473.8888888888889 369.25869694021014 492.3611111111111 374.6849122179879C510.8333333333333 380.1111274957657 510.8333333333333 423.17449555132123 529.3055555555555 426.8689399957657C547.7777777777778 430.56338444021014 557.0138888888889 398.8142524957657 566.25 389.4626899957657 " transform="rotate(57, 400, 400)"></path><path d="M242.5 412.32978415489197C251.25 402.81415915489197 260 374.70478415489197 277.5 374.26728415489197C295 373.82978415489197 295 409.59540915489197 312.5 410.57978415489197C330 411.56415915489197 330 376.89228415489197 347.5 378.20478415489197C365 379.51728415489197 365 416.59540915489197 382.5 415.82978415489197C400 415.06415915489197 400 377.87665915489197 417.5 375.14228415489197C435 372.40790915489197 435 404.67353415489197 452.5 404.89228415489197C470 405.11103415489197 470 370.87665915489197 487.5 376.01728415489197C505 381.15790915489197 505 421.95478415489197 522.5 425.45478415489197C540 428.95478415489197 548.75 398.87665915489197 557.5 390.01728415489197 " transform="rotate(54, 400, 400)"></path><path d="M251.25 411.64479688803357C259.5138888888889 402.6578177213669 267.77777777777777 376.11007466581134 284.30555555555554 375.6968802213669C300.83333333333337 375.2836857769224 300.83333333333337 409.0623316102558 317.3611111111111 409.9920191102558C333.8888888888889 410.9217066102558 333.8888888888889 378.17604688803357 350.4166666666667 379.4156302213669C366.94444444444446 380.6552135547002 366.94444444444446 415.6734427213669 383.47222222222223 414.9503524435891C400 414.22726216581134 400 379.10573438803357 416.52777777777777 376.5232691102558C433.05555555555554 373.94080383247797 433.05555555555554 404.4138941102558 449.58333333333337 404.62049133247797C466.1111111111111 404.8270885547002 466.1111111111111 372.4946232769224 482.6388888888889 377.34965799914465C499.16666666666663 382.2046927213669 499.16666666666663 420.73507466581134 515.6944444444445 424.0406302213669C532.2222222222222 427.3461857769224 540.4861111111111 398.9390677213669 548.75 390.5718802213669 " transform="rotate(51, 400, 400)"></path><path d="M260 410.9598096211751C267.77777777777777 402.5014762878418 275.55555555555554 377.5153651767307 291.1111111111111 377.1264762878418C306.66666666666663 376.7375873989529 306.66666666666663 408.52925406561957 322.22222222222223 409.40425406561957C337.77777777777777 410.27925406561957 337.77777777777777 379.4598096211751 353.3333333333333 380.6264762878418C368.8888888888889 381.7931429545085 368.8888888888889 414.7514762878418 384.44444444444446 414.07092073228625C400 413.3903651767307 400 380.3348096211751 415.55555555555554 377.90425406561957C431.1111111111111 375.473698510064 431.1111111111111 404.15425406561957 446.66666666666663 404.348698510064C462.22222222222223 404.5431429545085 462.22222222222223 374.1125873989529 477.77777777777777 378.68203184339734C493.33333333333337 383.2514762878418 493.33333333333337 419.5153651767307 508.8888888888889 422.6264762878418C524.4444444444445 425.7375873989529 532.2222222222222 399.0014762878418 540 391.1264762878418 " transform="rotate(48, 400, 400)"></path><path d="M268.75 410.27481853961945C276.0416666666667 402.34513103961945 283.3333333333333 378.92065187295276 297.9166666666667 378.55606853961945C312.5 378.19148520628613 312.5 407.99617270628613 327.08333333333337 408.81648520628613C341.6666666666667 409.63679770628613 341.6666666666667 380.74356853961945 356.25 381.83731853961945C370.8333333333333 382.93106853961945 370.8333333333333 413.82950603961945 385.4166666666667 413.19148520628613C400 412.55346437295276 400 381.56388103961945 414.58333333333337 379.28523520628613C429.16666666666663 377.00658937295276 429.16666666666663 403.89461020628613 443.75 404.07690187295276C458.33333333333337 404.25919353961945 458.33333333333337 375.73054770628613 472.91666666666663 380.01440187295276C487.5 384.29825603961945 487.5 418.29565187295276 502.08333333333337 421.21231853961945C516.6666666666666 424.12898520628613 523.9583333333334 399.06388103961945 531.25 391.68106853961945 " transform="rotate(45, 400, 400)"></path><path d="M277.5 409.58983127276105C284.30555555555554 402.18878960609436 291.1111111111111 380.32594238387213 304.72222222222223 379.98566460609436C318.33333333333337 379.6453868283166 318.33333333333337 407.4630951616499 331.94444444444446 408.2287201616499C345.55555555555554 408.9943451616499 345.55555555555554 382.02733127276105 359.1666666666667 383.04816460609436C372.77777777777777 384.0689979394277 372.77777777777777 412.90753960609436 386.3888888888889 412.3120534949833C400 411.71656738387213 400 382.79295627276105 413.6111111111111 380.6662201616499C427.22222222222223 378.5394840505388 427.22222222222223 403.6349701616499 440.83333333333337 403.8051090505388C454.44444444444446 403.9752479394277 454.44444444444446 377.3485118283166 468.05555555555554 381.34677571720545C481.66666666666663 385.34503960609436 481.66666666666663 417.07594238387213 495.27777777777777 419.79816460609436C508.8888888888889 422.5203868283166 515.6944444444445 399.12628960609436 522.5 392.23566460609436 " transform="rotate(42, 400, 400)"></path><path d="M286.25 408.9048440059026C292.56944444444446 402.0324481725693 298.8888888888889 381.7312328947915 311.52777777777777 381.4152606725693C324.16666666666663 381.09928845034705 324.16666666666663 406.93001761701373 336.80555555555554 407.64095511701373C349.44444444444446 408.35189261701373 349.44444444444446 383.3110940059026 362.0833333333333 384.2590106725693C374.72222222222223 385.20692733923596 374.72222222222223 411.9855731725693 387.3611111111111 411.43262178368036C400 410.8796703947915 400 384.0220315059026 412.6388888888889 382.04720511701373C425.27777777777777 380.0723787281248 425.27777777777777 403.37533011701373 437.91666666666663 403.5333162281248C450.55555555555554 403.69130233923596 450.55555555555554 378.96647595034705 463.19444444444446 382.6791495614582C475.83333333333337 386.3918231725693 475.83333333333337 415.8562328947915 488.47222222222223 418.3840106725693C501.1111111111111 420.91178845034705 507.43055555555554 399.1886981725693 513.75 392.7902606725693 " transform="rotate(39, 400, 400)"></path><path d="M295 408.21985483169556C300.8333333333333 401.87610483169556 306.6666666666667 383.13652149836224 318.3333333333333 382.84485483169556C330 382.55318816502887 330 406.39693816502887 341.66666666666663 407.05318816502887C353.33333333333337 407.70943816502887 353.33333333333337 384.59485483169556 365 385.46985483169556C376.6666666666667 386.34485483169556 376.6666666666667 411.06360483169556 388.3333333333333 410.55318816502887C400 410.04277149836224 400 385.25110483169556 411.6666666666667 383.42818816502887C423.33333333333337 381.60527149836224 423.33333333333337 403.11568816502887 435 403.26152149836224C446.66666666666663 403.40735483169556 446.66666666666663 380.58443816502887 458.33333333333337 384.01152149836224C470 387.43860483169556 470 414.63652149836224 481.66666666666663 416.96985483169556C493.33333333333337 419.30318816502887 499.16666666666663 399.25110483169556 505 393.34485483169556 " transform="rotate(36, 400, 400)"></path><path d="M303.75 407.53486756483716C309.09722222222223 401.71976339817047 314.44444444444446 384.54181200928156 325.1388888888889 384.27445089817047C335.83333333333337 384.0070897870594 335.83333333333337 405.8638606203927 346.52777777777777 406.4654231203927C357.22222222222223 407.0669856203927 357.22222222222223 385.87861756483716 367.9166666666667 386.68070089817047C378.6111111111111 387.4827842315038 378.6111111111111 410.14163839817047 389.30555555555554 409.673756453726C400 409.20587450928156 400 386.48018006483716 410.69444444444446 384.8091731203927C421.3888888888889 383.13816617594824 421.3888888888889 402.8560481203927 432.08333333333337 402.98972867594824C442.77777777777777 403.1234092315038 442.77777777777777 382.2024022870594 453.47222222222223 385.3438953426149C464.16666666666663 388.48538839817047 464.16666666666663 413.41681200928156 474.8611111111111 415.55570089817047C485.55555555555554 417.6945897870594 490.90277777777777 399.31351339817047 496.25 393.89945089817047 " transform="rotate(33, 400, 400)"></path><path d="M312.5 406.8498793443044C317.3611111111111 401.56342101097107 322.22222222222223 385.9471015665266 331.94444444444446 385.70404601097107C341.6666666666667 385.4609904554155 341.6666666666667 405.33078212208216 351.3888888888889 405.87765712208216C361.1111111111111 406.42453212208216 361.1111111111111 387.1623793443044 370.83333333333337 387.89154601097107C380.55555555555554 388.62071267763775 380.55555555555554 409.21967101097107 390.27777777777777 408.79432378874884C400 408.3689765665266 400 387.7092543443044 409.72222222222223 386.19015712208216C419.44444444444446 384.67105989986 419.44444444444446 402.59640712208216 429.1666666666667 402.71793489986C438.8888888888889 402.83946267763775 438.8888888888889 383.8203654554155 448.6111111111111 386.6762682331933C458.33333333333337 389.53217101097107 458.33333333333337 412.1971015665266 468.05555555555554 414.14154601097107C477.77777777777777 416.0859904554155 482.6388888888889 399.37592101097107 487.5 394.45404601097107 " transform="rotate(30, 400, 400)"></path><path d="M321.25 406.164892077446C325.625 401.407079577446 330 387.352392077446 338.75 387.133642077446C347.5 386.914892077446 347.5 404.797704577446 356.25 405.289892077446C365 405.782079577446 365 388.446142077446 373.75 389.102392077446C382.5 389.758642077446 382.5 408.297704577446 391.25 407.914892077446C400 407.532079577446 400 388.938329577446 408.75 387.571142077446C417.5 386.203954577446 417.5 402.336767077446 426.25 402.446142077446C435 402.555517077446 435 385.438329577446 443.75 388.008642077446C452.5 390.578954577446 452.5 410.977392077446 461.25 412.727392077446C470 414.477392077446 474.375 399.438329577446 478.75 395.008642077446 " transform="rotate(27, 400, 400)"></path><path d="M330 405.47990290323895C333.8888888888889 401.25073623657227 337.77777777777777 388.7576806810167 345.55555555555554 388.56323623657227C353.3333333333333 388.3687917921278 353.3333333333333 404.2646251254612 361.1111111111111 404.7021251254612C368.8888888888889 405.1396251254612 368.8888888888889 389.72990290323895 376.66666666666663 390.31323623657227C384.44444444444446 390.8965695699056 384.44444444444446 407.37573623657227 392.22222222222223 407.0354584587945C400 406.6951806810167 400 390.16740290323895 407.77777777777777 388.9521251254612C415.55555555555554 387.73684734768335 415.55555555555554 402.0771251254612 423.3333333333333 402.17434734768335C431.1111111111111 402.2715695699056 431.1111111111111 387.0562917921278 438.8888888888889 389.34101401435004C446.6666666666667 391.62573623657227 446.6666666666667 409.7576806810167 454.44444444444446 411.31323623657227C462.22222222222223 412.8687917921278 466.1111111111111 399.50073623657227 470 395.56323623657227 " transform="rotate(24, 400, 400)"></path><path d="M338.75 404.7949156363805C342.15277777777777 401.0943948030472 345.55555555555554 390.1629711919361 352.3611111111111 389.9928323030472C359.1666666666667 389.82269341415827 359.1666666666667 403.73154758082495 365.97222222222223 404.11436008082495C372.77777777777777 404.49717258082495 372.77777777777777 391.0136656363805 379.58333333333337 391.5240823030472C386.3888888888889 392.03449896971387 386.3888888888889 406.4537698030472 393.19444444444446 406.15602674749164C400 405.8582836919361 400 391.3964781363805 406.80555555555554 390.33311008082495C413.6111111111111 389.2697420252694 413.6111111111111 401.81748508082495 420.4166666666667 401.9025545252694C427.22222222222223 401.98762396971387 427.22222222222223 388.67425591415827 434.02777777777777 390.6733878586027C440.8333333333333 392.6725198030472 440.8333333333333 408.5379711919361 447.6388888888889 409.8990823030472C454.44444444444446 411.26019341415827 457.84722222222223 399.5631448030472 461.25 396.1178323030472 " transform="rotate(21, 400, 400)"></path><path d="M347.5 404.1099274158478C350.4166666666667 400.9380524158478 353.3333333333333 391.5682607491811 359.1666666666667 391.4224274158478C365 391.27659408251446 365 403.19846908251446 370.8333333333333 403.52659408251446C376.6666666666667 403.85471908251446 376.6666666666667 392.2974274158478 382.5 392.7349274158478C388.33333333333337 393.1724274158478 388.33333333333337 405.5318024158478 394.16666666666663 405.27659408251446C400 405.0213857491811 400 392.6255524158478 405.83333333333337 391.71409408251446C411.6666666666667 390.8026357491811 411.6666666666667 401.55784408251446 417.5 401.6307607491811C423.3333333333333 401.7036774158478 423.3333333333333 390.29221908251446 429.1666666666667 392.0057607491811C435 393.7193024158478 435 407.3182607491811 440.8333333333333 408.4849274158478C446.6666666666667 409.65159408251446 449.5833333333333 399.6255524158478 452.5 396.6724274158478 " transform="rotate(18, 400, 400)"></path><path d="M356.25 403.42493919531506C358.68055555555554 400.7817100286484 361.1111111111111 392.97355030642615 365.97222222222223 392.8520225286484C370.8333333333333 392.7304947508706 370.8333333333333 402.6653905842039 375.69444444444446 402.9388280842039C380.55555555555554 403.2122655842039 380.55555555555554 393.58118919531506 385.4166666666667 393.9457725286484C390.27777777777777 394.3103558619817 390.27777777777777 404.6098350286484 395.1388888888889 404.3971614175373C400 404.18448780642615 400 393.85462669531506 404.8611111111111 393.0950780842039C409.72222222222223 392.33552947309283 409.72222222222223 401.2982030842039 414.58333333333337 401.35896697309283C419.44444444444446 401.4197308619817 419.44444444444446 391.9101822508706 424.30555555555554 393.33813363975946C429.1666666666667 394.7660850286484 429.1666666666667 406.09855030642615 434.02777777777777 407.0707725286484C438.8888888888889 408.0429947508706 441.31944444444446 399.6879600286484 443.75 397.2270225286484 " transform="rotate(15, 400, 400)"></path><path d="M365 402.7399509747823C366.94444444444446 400.625367641449 368.8888888888889 394.3788398636712 372.77777777777777 394.281617641449C376.6666666666667 394.18439541922675 376.6666666666667 402.13231208589343 380.55555555555554 402.35106208589343C384.44444444444446 402.56981208589343 384.44444444444446 394.8649509747823 388.3333333333333 395.156617641449C392.22222222222223 395.44828430811566 392.22222222222223 403.687867641449 396.1111111111111 403.51772875256006C400 403.3475898636712 400 395.0837009747823 403.8888888888889 394.47606208589343C407.77777777777777 393.8684231970045 407.77777777777777 401.03856208589343 411.66666666666663 401.0871731970045C415.55555555555554 401.13578430811566 415.55555555555554 393.52814541922675 419.44444444444446 394.6705065303379C423.33333333333337 395.812867641449 423.33333333333337 404.8788398636712 427.22222222222223 405.656617641449C431.1111111111111 406.43439541922675 433.05555555555554 399.750367641449 435 397.781617641449 " transform="rotate(12, 400, 400)"></path><path d="M373.75 402.0549637079239C375.2083333333333 400.4690262079239 376.6666666666667 395.7841303745906 379.5833333333333 395.7112137079239C382.5 395.6382970412572 382.5 401.5992345412572 385.4166666666667 401.7632970412572C388.3333333333333 401.9273595412572 388.3333333333333 396.1487137079239 391.25 396.3674637079239C394.1666666666667 396.5862137079239 394.1666666666667 402.7659012079239 397.0833333333333 402.6382970412572C400 402.5106928745906 400 396.3127762079239 402.9166666666667 395.8570470412572C405.83333333333337 395.4013178745906 405.83333333333337 400.7789220412572 408.75 400.8153803745906C411.66666666666663 400.8518387079239 411.66666666666663 395.1461095412572 414.58333333333337 396.0028803745906C417.5 396.8596512079239 417.5 403.6591303745906 420.41666666666663 404.2424637079239C423.33333333333337 404.8257970412572 424.79166666666663 399.8127762079239 426.25 398.3362137079239 " transform="rotate(9, 400, 400)"></path><path d="M382.5 401.3699764410655C383.47222222222223 400.3126847743988 384.44444444444446 397.1894208855099 386.3888888888889 397.1408097743988C388.3333333333333 397.0921986632877 388.3333333333333 401.06615699662103 390.27777777777777 401.17553199662103C392.22222222222223 401.28490699662103 392.22222222222223 397.4324764410655 394.1666666666667 397.5783097743988C396.1111111111111 397.7241431077321 396.1111111111111 401.8439347743988 398.05555555555554 401.75886532995435C400 401.6737958855099 400 397.5418514410655 401.94444444444446 397.23803199662103C403.8888888888889 396.9342125521766 403.8888888888889 400.51928199662103 405.8333333333333 400.5435875521766C407.77777777777777 400.5678931077321 407.77777777777777 396.7640736632877 409.72222222222223 397.33525421884326C411.6666666666667 397.9064347743988 411.6666666666667 402.4394208855099 413.6111111111111 402.8283097743988C415.55555555555554 403.2171986632877 416.52777777777777 399.8751847743988 417.5 398.8908097743988 " transform="rotate(6, 400, 400)"></path><path d="M391.25 400.6849872668584C391.7361111111111 400.1563414335251 392.22222222222223 398.5947094890806 393.19444444444446 398.5704039335251C394.1666666666667 398.54609837796954 394.1666666666667 400.53307754463617 395.1388888888889 400.58776504463617C396.1111111111111 400.64245254463617 396.1111111111111 398.7162372668584 397.0833333333333 398.7891539335251C398.05555555555554 398.86207060019177 398.05555555555554 400.9219664335251 399.02777777777777 400.87943171130286C400 400.8368969890806 400 398.7709247668584 400.97222222222223 398.61901504463617C401.94444444444446 398.467105322414 401.94444444444446 400.25964004463617 402.9166666666667 400.271792822414C403.8888888888889 400.28394560019177 403.8888888888889 398.38203587796954 404.8611111111111 398.6676261557473C405.8333333333333 398.9532164335251 405.8333333333333 401.2197094890806 406.80555555555554 401.4141539335251C407.77777777777777 401.60859837796954 408.2638888888889 399.9375914335251 408.75 399.4454039335251 " transform="rotate(3, 400, 400)"></path></g></svg>